<svg width="25" height="24" viewBox="0 0 25 24" fill="none" xmlns="http://www.w3.org/2000/svg">
<path d="M17.2072 3.29289L21.2072 7.29289C21.5977 7.68342 21.5977 8.31658 21.2072 8.70711L10.2072 19.7071C10.0676 19.8467 9.88978 19.9419 9.69618 19.9806L4.69618 20.9806C3.99646 21.1205 3.37954 20.5036 3.51949 19.8039L4.51949 14.8039C4.55821 14.6103 4.65336 14.4325 4.79296 14.2929L15.793 3.29289C16.1835 2.90237 16.8167 2.90237 17.2072 3.29289ZM13.9995 7.914L6.42127 15.493L5.77482 18.7252L9.00706 18.0788L16.5855 10.5L13.9995 7.914ZM16.5001 5.41421L15.4145 6.5L17.9995 9.085L19.0859 8L16.5001 5.41421Z" fill="#0C8CE9"/>
</svg>
