<svg width="40" height="40" viewBox="0 0 40 40" fill="none" xmlns="http://www.w3.org/2000/svg">
<path d="M28.1274 15.825L23.8874 11.585C23.1074 10.805 21.8374 10.805 21.0574 11.585L17.5774 15.055C17.3774 15.255 16.8574 15.475 16.5674 15.475L12.8374 15.515C11.8674 15.525 11.5274 16.095 11.4274 16.345C11.3274 16.595 11.1674 17.245 11.8474 17.935L16.0974 22.185L11.5874 26.695C11.1974 27.085 11.1974 27.715 11.5874 28.105C11.7874 28.305 12.0374 28.395 12.2974 28.395C12.5574 28.395 12.8074 28.295 13.0074 28.105L17.5174 23.595L21.7674 27.845C22.1774 28.255 22.5674 28.365 22.8774 28.365C23.0874 28.365 23.2574 28.315 23.3574 28.275C23.6074 28.175 24.1874 27.835 24.1974 26.855L24.2374 23.125C24.2374 22.835 24.4574 22.315 24.6574 22.115L28.1274 18.645C28.8974 17.865 28.8974 16.605 28.1274 15.825Z" fill="#0C8CE9"/>
</svg>
