<svg width="25" height="24" viewBox="0 0 25 24" fill="none" xmlns="http://www.w3.org/2000/svg">
<g id="locked">
<g id="shape">
<path d="M13.5 15V18H11.5V15H13.5Z" fill="white"/>
<path fill-rule="evenodd" clip-rule="evenodd" d="M12.5 2C11.1739 2 9.90215 2.52678 8.96447 3.46447C8.02678 4.40215 7.5 5.67392 7.5 7L7.5 11H5.5C4.94772 11 4.5 11.4477 4.5 12V21C4.5 21.5523 4.94772 22 5.5 22H19.5C20.0523 22 20.5 21.5523 20.5 21V12C20.5 11.4477 20.0523 11 19.5 11H17.5V7C17.5 5.67392 16.9732 4.40215 16.0355 3.46447C15.0979 2.52678 13.8261 2 12.5 2ZM9.5 7V11H15.5V7C15.5 6.20435 15.1839 5.44129 14.6213 4.87868C14.0587 4.31607 13.2956 4 12.5 4C11.7044 4 10.9413 4.31607 10.3787 4.87868C9.81607 5.44129 9.5 6.20435 9.5 7ZM6.5 13V20H18.5V13H6.5Z" fill="white"/>
</g>
</g>
</svg>
