<svg width="25" height="24" viewBox="0 0 25 24" fill="none" xmlns="http://www.w3.org/2000/svg">
<path fill-rule="evenodd" clip-rule="evenodd" d="M3.5 2C2.94772 2 2.5 2.44772 2.5 3V15C2.5 15.5523 2.94772 16 3.5 16H6.5V14H4.5V5.0449L11.8857 10.7894C12.2469 11.0702 12.7525 11.0702 13.1136 10.7894L20.5 5.04441V14H18.5V16H21.5C22.0523 16 22.5 15.5523 22.5 15V3C22.5 2.44772 22.0523 2 21.5 2H3.5ZM6.4142 4L12.4997 8.73315L18.5852 4H6.4142Z" fill="#2C2C2C"/>
<path d="M13.5 16.4141V23H11.5V16.4143L9.20718 18.7071L7.79297 17.2929L11.793 13.2929C12.1835 12.9024 12.8167 12.9024 13.2072 13.2929L17.2072 17.2929L15.793 18.7071L13.5 16.4141Z" fill="#2C2C2C"/>
</svg>
