<svg width="1213" height="1213" viewBox="0 0 1213 1213" fill="none" xmlns="http://www.w3.org/2000/svg">
<path d="M320.221 533.922C319.762 533.99 319.293 533.939 318.859 533.773C318.426 533.607 318.042 533.333 317.746 532.975C317.45 532.618 317.25 532.19 317.168 531.733C317.085 531.277 317.121 530.806 317.274 530.368C319.008 520.106 371.167 288.605 372.805 281.314H278.1C277.639 281.921 291.237 267.159 45.4706 532.581C45.0763 536.257 38.5504 598.35 35.6635 625.74C37.6406 625.527 39.7937 625.588 41.589 625.437C47.4174 624.921 239.168 608.012 246.246 607.399C246.639 607.405 247.025 607.501 247.376 607.679C247.726 607.856 248.031 608.112 248.268 608.425C248.505 608.738 248.667 609.102 248.742 609.487C248.818 609.873 248.804 610.271 248.703 610.65C248.515 611.129 242.929 634.486 186.488 854.512C189.156 854.178 210.627 851.382 218.675 850.351C218.584 847.767 218.523 845.22 218.402 842.636C218.281 839.325 223.381 839.355 223.533 842.636C223.624 844.977 223.685 847.343 223.775 849.684C231.399 848.677 239.047 847.707 246.701 846.706L246.792 840.878C246.792 840.197 247.062 839.545 247.544 839.063C248.025 838.582 248.677 838.312 249.358 838.312C250.038 838.312 250.691 838.582 251.172 839.063C251.653 839.545 251.923 840.197 251.923 840.878C251.893 842.606 251.893 844.31 251.863 846.039L272.908 843.304C272.951 842.697 303.403 603.706 303.482 603.087C303.486 602.528 303.672 601.986 304.012 601.542C304.353 601.099 304.829 600.779 305.368 600.631C308.855 600.054 363.665 591.127 387.591 587.209C388.016 585.341 397.241 542.328 401.71 520.894C401.104 520.985 320.828 533.922 320.221 533.922ZM231.423 547.065C218.038 549.096 117.074 564.52 113.156 565.126V529.882C118.863 524.054 284.747 355.041 284.747 355.041C284.547 355.653 232.721 541.746 231.423 547.065ZM1073.26 533.922C1072.8 533.99 1072.33 533.939 1071.9 533.773C1071.46 533.607 1071.08 533.333 1070.78 532.975C1070.49 532.618 1070.29 532.19 1070.2 531.733C1070.12 531.277 1070.16 530.806 1070.31 530.368C1072.04 520.106 1124.21 288.605 1125.85 281.314H1031.14C1030.69 281.921 1044.28 267.159 798.519 532.581C798.125 536.257 791.593 598.35 788.712 625.74C790.683 625.527 792.836 625.588 794.632 625.437C800.46 624.921 992.217 608.012 999.289 607.399C999.682 607.404 1000.07 607.499 1000.42 607.676C1000.77 607.854 1001.08 608.109 1001.31 608.423C1001.55 608.736 1001.71 609.1 1001.79 609.486C1001.86 609.872 1001.85 610.27 1001.75 610.65C1001.56 611.141 995.207 637.457 939.53 854.512C942.205 854.178 963.669 851.382 971.717 850.351C971.626 847.767 971.566 845.22 971.444 842.636C971.323 839.325 976.424 839.355 976.576 842.636C976.667 844.977 976.727 847.343 976.818 849.684C984.442 848.677 992.096 847.707 999.744 846.706C999.744 844.759 999.81 842.818 999.835 840.878C999.867 840.218 1000.15 839.596 1000.63 839.14C1001.11 838.685 1001.74 838.431 1002.4 838.431C1003.06 838.431 1003.7 838.685 1004.18 839.14C1004.66 839.596 1004.94 840.218 1004.97 840.878C1004.94 842.606 1004.94 844.31 1004.91 846.039L1025.95 843.304C1025.99 842.697 1056.45 603.7 1056.52 603.087C1056.53 602.528 1056.71 601.986 1057.05 601.542C1057.4 601.099 1057.87 600.779 1058.41 600.631C1061.9 600.054 1116.71 591.127 1140.63 587.209C1141.05 585.389 1150.24 542.546 1154.76 520.894C1154.16 520.985 1073.87 533.922 1073.26 533.922ZM984.472 547.065C971.081 549.096 870.117 564.52 866.168 565.126V529.882L1037.76 355.041C1037.59 355.659 985.782 541.679 984.472 547.065Z" fill="#B26EE6"/>
<path d="M738.11 373.714C728.545 344.171 715.002 314.744 691.591 294.371C680.414 284.749 667.412 277.481 653.361 273C639.311 268.519 624.501 266.917 609.817 268.292C511.794 277.814 459.926 409.066 443.266 505.433C426.745 600.872 418.308 729.741 511.133 791.046C541.343 810.994 581.063 818.042 614.705 804.68C642.732 793.569 663.929 770.037 681.36 745.407C718.579 691.901 743.046 630.58 752.884 566.148C762.721 501.717 757.667 435.888 738.11 373.714ZM630.577 689.415C619.521 706.634 606.378 722.906 590.015 729.923C570.334 738.329 548.263 731.743 532.167 716.047C482.767 667.951 493.878 574.671 507.907 505.955C519.655 448.337 550.871 355.676 603.254 341.739C613.459 339.182 624.197 339.763 634.067 343.403C643.937 347.044 652.48 353.577 658.579 362.148C695.012 409.012 706.232 571.627 630.577 689.415Z" fill="#FFD35C"/>
<path d="M404.453 515.275C377.321 519.581 350.194 523.922 323.073 528.297L378.58 279.341C378.68 278.961 378.693 278.564 378.617 278.179C378.541 277.794 378.379 277.431 378.142 277.118C377.905 276.805 377.601 276.55 377.251 276.371C376.901 276.193 376.516 276.097 376.123 276.09H278.198C274.832 276.175 274.929 277.206 269.452 283.137C26.2759 545.982 40.8744 528.994 40.4984 532.215C39.6493 540.051 30.479 627.168 30.3213 628.715C30.3205 629.051 30.386 629.383 30.514 629.693C30.6421 630.003 30.8301 630.285 31.0674 630.522C31.3046 630.76 31.5864 630.948 31.8966 631.076C32.2067 631.204 32.5391 631.269 32.8747 631.268C73.1827 627.805 222.6 614.341 242.906 612.988C208.232 747.577 180.933 856.195 180.691 856.801C180.327 858.233 181.449 860.265 183.147 860.052L218.888 855.4C220.027 895.634 218.332 935.898 213.818 975.894C201.908 975.179 189.977 976.883 178.744 980.903C175.711 981.995 176.985 986.969 180.115 985.853C191.627 981.707 203.901 980.101 216.092 981.146C216.767 981.138 217.412 980.867 217.889 980.39C218.366 979.912 218.638 979.267 218.646 978.593C223.408 937.491 225.184 896.098 223.959 854.739C231.522 853.769 239.079 852.762 246.642 851.792C246.061 892.111 247.795 932.431 251.833 972.552C252.967 980.321 258.505 981.492 277.555 990.923C280.496 992.378 283.11 987.945 280.133 986.489C258.299 975.718 257.504 976.343 256.813 971.491C252.863 931.465 251.18 891.249 251.773 851.034C255.812 850.518 271.508 848.48 275.305 847.965C275.973 847.941 276.608 847.665 277.082 847.192C277.555 846.72 277.833 846.086 277.858 845.417C277.931 844.811 308.389 605.747 308.432 605.14C332.267 601.253 386.864 592.325 390.358 591.749C392.723 591.397 391.037 594.345 407.516 518.235C408.037 516.367 406.394 514.966 404.453 515.275ZM387.598 587.206C363.672 591.124 308.862 600.052 305.375 600.628C304.836 600.776 304.36 601.096 304.02 601.539C303.679 601.983 303.493 602.525 303.489 603.084C303.41 603.691 272.958 842.688 272.915 843.301L251.87 846.036C251.87 844.307 251.87 842.603 251.93 840.875C251.93 840.194 251.66 839.542 251.179 839.061C250.698 838.58 250.045 838.309 249.365 838.309C248.684 838.309 248.032 838.58 247.551 839.061C247.07 839.542 246.799 840.194 246.799 840.875L246.708 846.703C239.054 847.704 231.406 848.674 223.783 849.681C223.692 847.34 223.631 844.975 223.54 842.634C223.388 839.352 218.288 839.322 218.409 842.634C218.53 845.217 218.591 847.765 218.682 850.348C210.634 851.379 189.17 854.175 186.495 854.509C242.936 634.483 248.522 611.126 248.71 610.647C248.811 610.268 248.825 609.87 248.75 609.485C248.674 609.099 248.512 608.736 248.275 608.422C248.038 608.109 247.733 607.854 247.383 607.676C247.033 607.498 246.646 607.403 246.253 607.397C239.176 608.003 47.4246 624.918 41.5961 625.434C39.7766 625.585 37.6478 625.525 35.6706 625.737C38.5576 598.348 45.0835 536.254 45.4777 532.579C291.244 267.156 277.652 281.918 278.107 281.312H372.812C371.174 288.59 319.009 520.103 317.275 530.365C317.122 530.804 317.086 531.274 317.169 531.731C317.252 532.188 317.451 532.615 317.747 532.973C318.043 533.33 318.427 533.605 318.86 533.771C319.294 533.936 319.763 533.987 320.222 533.919H320.313C345.24 529.94 399.504 521.255 401.718 520.891C397.075 543.01 392.369 565.115 387.598 587.206Z" fill="black"/>
<path d="M288.034 344.321C285.923 346.462 118.687 516.913 113.465 522.195C111.494 524.203 108.061 526.538 108.006 529.577C107.861 538.674 108.006 568.708 108.006 568.077C108.016 568.469 108.114 568.853 108.293 569.202C108.472 569.551 108.727 569.855 109.039 570.091C109.351 570.328 109.713 570.491 110.097 570.569C110.481 570.646 110.878 570.636 111.257 570.54C125.134 568.411 229.161 552.533 234.201 551.774C234.699 551.731 235.165 551.506 235.507 551.141C235.849 550.776 236.045 550.298 236.057 549.797C237.876 543.089 292.322 346.868 292.352 346.747C292.475 346.204 292.42 345.636 292.194 345.127C291.968 344.618 291.583 344.196 291.098 343.924C290.612 343.651 290.052 343.542 289.5 343.614C288.948 343.686 288.434 343.934 288.034 344.321ZM231.429 547.062C218.044 549.094 117.08 564.517 113.162 565.124V529.88C118.869 524.051 284.753 355.038 284.753 355.038C284.553 355.651 232.727 541.743 231.429 547.062ZM1157.47 515.275C1132.52 519.181 1078.27 527.933 1076.09 528.297C1077.67 521.195 1131.56 279.492 1131.59 279.341C1131.69 278.961 1131.71 278.564 1131.63 278.178C1131.55 277.792 1131.39 277.429 1131.16 277.116C1130.92 276.802 1130.61 276.547 1130.26 276.369C1129.91 276.191 1129.53 276.096 1129.13 276.09H1031.21C1027.84 276.175 1027.96 277.182 1022.46 283.137C778.808 546.304 793.867 529.122 793.515 532.215C792.66 540.051 783.49 627.168 783.344 628.715C783.343 629.05 783.409 629.382 783.536 629.692C783.664 630.001 783.852 630.283 784.088 630.52C784.325 630.757 784.606 630.945 784.915 631.074C785.225 631.202 785.557 631.268 785.892 631.268C826.369 627.793 975.532 614.347 995.922 612.988C960.418 750.797 933.962 856.195 933.708 856.801C933.344 858.233 934.466 860.265 936.17 860.052L971.954 855.4C973.092 895.634 971.398 935.898 966.883 975.894C954.974 975.179 943.043 976.883 931.809 980.903C928.777 981.995 930.051 986.969 933.18 985.853C944.693 981.707 956.966 980.101 969.158 981.146C969.832 981.138 970.477 980.867 970.954 980.39C971.432 979.912 971.703 979.267 971.711 978.593C976.477 937.491 978.252 896.098 977.024 854.739C984.587 853.769 992.144 852.762 999.707 851.792C999.126 892.112 1000.86 932.431 1004.9 972.552C1006.03 980.327 1011.55 981.492 1030.62 990.923C1033.56 992.378 1036.18 987.945 1033.2 986.489C1011.36 975.718 1010.58 976.343 1009.88 971.491C1005.93 931.465 1004.25 891.249 1004.84 851.034C1008.88 850.518 1024.57 848.48 1028.37 847.965C1029.04 847.942 1029.67 847.667 1030.15 847.194C1030.62 846.721 1030.9 846.086 1030.92 845.417C1031 844.811 1061.45 605.777 1061.5 605.14C1085.34 601.253 1139.93 592.325 1143.42 591.749C1145.78 591.397 1144.15 594.175 1160.58 518.235C1161.08 516.367 1159.43 514.966 1157.47 515.275ZM1140.64 587.206C1116.72 591.124 1061.91 600.052 1058.42 600.628C1057.88 600.776 1057.4 601.096 1057.06 601.539C1056.72 601.983 1056.53 602.525 1056.53 603.084C1056.45 603.691 1026 842.694 1025.96 843.301L1004.91 846.036C1004.91 844.307 1004.91 842.603 1004.98 840.875C1004.95 840.215 1004.66 839.593 1004.18 839.138C1003.7 838.682 1003.07 838.428 1002.41 838.428C1001.75 838.428 1001.11 838.682 1000.64 839.138C1000.16 839.593 999.873 840.215 999.84 840.875L999.75 846.703C992.102 847.704 984.448 848.674 976.824 849.681C976.733 847.34 976.672 844.975 976.581 842.634C976.43 839.352 971.329 839.322 971.45 842.634C971.572 845.217 971.632 847.765 971.723 850.348C963.675 851.379 942.211 854.175 939.536 854.509C995.213 637.455 1001.57 611.139 1001.75 610.647C1001.85 610.268 1001.87 609.87 1001.79 609.485C1001.72 609.099 1001.55 608.736 1001.32 608.422C1001.08 608.109 1000.77 607.854 1000.42 607.676C1000.07 607.498 999.687 607.403 999.295 607.397C992.223 608.003 800.466 624.918 794.637 625.434C792.818 625.585 790.689 625.525 788.718 625.737C791.599 598.348 798.131 536.254 798.525 532.579C1044.28 267.156 1030.69 281.918 1031.15 281.312H1125.85C1124.22 288.59 1072.05 520.103 1070.32 530.365C1070.16 530.804 1070.13 531.274 1070.21 531.731C1070.29 532.188 1070.49 532.615 1070.79 532.973C1071.08 533.33 1071.47 533.605 1071.9 533.771C1072.34 533.936 1072.8 533.987 1073.26 533.919H1073.35C1098.28 529.94 1152.55 521.255 1154.76 520.891C1150.24 542.544 1141.06 585.362 1140.64 587.206Z" fill="black"/>
<path d="M1041.07 344.322C1038.96 346.463 871.725 516.914 866.503 522.196C864.532 524.204 861.099 526.539 861.044 529.577C860.899 538.675 861.044 568.709 861.044 568.078C861.054 568.47 861.152 568.854 861.331 569.203C861.51 569.551 861.765 569.855 862.077 570.092C862.389 570.328 862.751 570.492 863.135 570.569C863.519 570.647 863.916 570.637 864.295 570.54C878.172 568.411 982.199 552.533 987.245 551.775C987.743 551.732 988.207 551.506 988.549 551.141C988.89 550.776 989.085 550.298 989.095 549.798C990.945 543.09 1045.36 346.869 1045.39 346.748C1045.51 346.205 1045.46 345.637 1045.23 345.128C1045.01 344.619 1044.62 344.197 1044.14 343.924C1043.65 343.652 1043.09 343.543 1042.54 343.615C1041.99 343.686 1041.47 343.934 1041.07 344.322ZM984.473 547.063C971.082 549.094 870.118 564.518 866.169 565.124V529.88L1037.76 355.039C1037.59 355.657 985.783 541.677 984.473 547.063ZM313.108 300.715C304.465 296.275 295.968 308.235 304.726 319.237C305.941 320.937 307.76 322.107 309.81 322.508C311.86 322.91 313.986 322.512 315.752 321.396C317.028 319.903 317.978 318.16 318.539 316.278C319.101 314.396 319.263 312.417 319.013 310.469C318.764 308.521 318.11 306.647 317.093 304.967C316.076 303.287 314.719 301.838 313.108 300.715ZM1076.84 316.872C1076.66 317.528 1076.75 318.229 1077.09 318.821C1077.42 319.413 1077.98 319.848 1078.64 320.028C1079.29 320.209 1079.99 320.122 1080.59 319.786C1081.18 319.45 1081.61 318.893 1081.79 318.236C1082.91 314.619 1082.86 310.741 1081.63 307.157C1080.41 303.574 1078.09 300.469 1074.99 298.289C1063.55 289.901 1047.4 300.957 1048.76 314.106C1048.79 314.761 1049.07 315.378 1049.55 315.831C1050.02 316.283 1050.65 316.535 1051.31 316.535C1051.96 316.535 1052.59 316.283 1053.07 315.831C1053.54 315.378 1053.82 314.761 1053.86 314.106C1053.71 312.224 1053.98 310.332 1054.67 308.571C1055.35 306.811 1056.42 305.228 1057.8 303.94C1059.18 302.652 1060.84 301.693 1062.64 301.134C1064.44 300.576 1066.35 300.432 1068.22 300.715C1069.87 301.177 1071.4 301.968 1072.74 303.04C1074.07 304.112 1075.17 305.443 1075.98 306.953C1076.78 308.462 1077.28 310.119 1077.43 311.824C1077.57 313.528 1077.38 315.246 1076.84 316.872ZM580.441 786.551C580.344 783.27 575.219 783.24 575.31 786.551C577.227 848.403 575.666 910.313 570.634 971.989C558.33 971.104 546.018 973.582 535.014 979.158C532.067 980.613 534.65 985.047 537.592 983.591C548.521 978.095 560.816 975.909 572.969 977.302C574.425 977.49 575.431 975.998 575.522 974.748C580.748 912.161 582.391 849.326 580.441 786.551ZM649.734 977.423C643.45 973.396 630.156 976.877 622.096 975.482C620.12 975.094 618.298 974.144 616.849 972.747C615.722 971.513 614.853 970.066 614.295 968.491C613.736 966.916 613.499 965.245 613.598 963.577C609.411 903.865 607.81 844 608.801 784.15C608.801 783.469 608.531 782.817 608.05 782.336C607.569 781.854 606.916 781.584 606.236 781.584C605.555 781.584 604.903 781.854 604.422 782.336C603.94 782.817 603.67 783.469 603.67 784.15C602.845 835.096 603.846 886.005 606.769 936.551C608.589 967.883 608.783 969.253 610.226 972.334C611.682 975.047 613.869 977.298 616.54 978.83C624.127 983.591 641.473 978.224 647.15 981.862C649.94 983.621 652.505 979.2 649.734 977.423ZM695.525 352.643C700.043 356.252 701.505 361.965 704.786 366.52C706.202 368.868 708.245 370.774 710.687 372.024C713.128 373.273 715.869 373.816 718.602 373.592C731.842 371.032 724.552 353.862 746.871 291.484C747.69 289.209 748.599 285.776 751.541 287.875C753.967 289.573 754.458 293.158 755.556 295.674C756.889 298.399 758.897 300.737 761.389 302.467C763.881 304.196 766.774 305.259 769.793 305.555C772.811 305.85 775.856 305.368 778.636 304.155C781.416 302.941 783.839 301.037 785.675 298.622C787.585 295.917 783.127 293.37 781.241 296.038C780.029 297.461 778.523 298.604 776.828 299.39C775.132 300.175 773.286 300.585 771.418 300.591C769.549 300.597 767.701 300.198 766 299.423C764.3 298.648 762.787 297.514 761.566 296.099C758.376 291.908 758.74 286.019 753.609 283.168C752.582 282.54 751.416 282.173 750.214 282.099C749.012 282.025 747.81 282.246 746.713 282.744C744.404 284.279 742.784 286.652 742.195 289.361C720.209 349.883 726.116 369.649 716.17 368.673C707.788 367.769 705.981 354.487 699.188 349.059C696.586 346.99 692.941 350.557 695.525 352.643ZM524.267 353.037C522.829 356.362 520.812 359.405 518.311 362.026C516.431 363.966 512.998 367.581 509.96 367.339C507.788 367.181 507.485 364.852 505.532 357.744C504.374 353.644 492.383 311.589 487.556 294.668C487.435 294.237 487.203 293.845 486.884 293.532C486.565 293.218 486.169 292.993 485.736 292.88C485.303 292.767 484.848 292.768 484.416 292.885C483.984 293.002 483.59 293.23 483.274 293.546C479.677 297.399 474.751 299.743 469.492 300.104C464.233 300.464 459.033 298.814 454.944 295.486C451.767 292.272 449.339 288.395 447.836 284.133C446.502 281.1 442.098 283.739 443.402 286.71C445.163 291.628 448.074 296.053 451.893 299.617C456.429 303.154 461.997 305.11 467.749 305.187C473.5 305.264 479.119 303.457 483.747 300.041C503.44 368.976 502.391 368.994 506.248 371.402C507.566 372.089 509.036 372.429 510.522 372.391C512.007 372.353 513.458 371.937 514.739 371.184C521.006 367.704 525.908 362.203 528.646 355.578C530.035 352.637 525.607 350.029 524.267 353.037ZM607.254 236.735C609.417 235.851 611.797 235.644 614.079 236.144C616.361 236.643 618.438 237.824 620.033 239.531C623.849 243.719 626.654 248.725 628.233 254.166C629.386 257.235 634.335 255.894 633.182 252.801C629.659 243.418 624.691 232.332 613.447 230.785C609.385 230.529 605.367 231.74 602.123 234.198C598.879 236.656 596.626 240.197 595.773 244.177C594.367 248.658 593.541 253.301 593.317 257.993C593.099 261.274 598.206 261.274 598.448 257.993C598.903 250.975 600.122 240.362 607.254 236.735ZM167.33 928.933C168.007 928.933 168.656 928.664 169.135 928.185C169.614 927.707 169.883 927.057 169.883 926.38C169.883 925.703 169.614 925.053 169.135 924.574C168.656 924.096 168.007 923.827 167.33 923.827H158.614C157.937 923.827 157.288 924.096 156.809 924.574C156.33 925.053 156.061 925.703 156.061 926.38C156.061 927.057 156.33 927.707 156.809 928.185C157.288 928.664 157.937 928.933 158.614 928.933H167.33ZM744.53 947.88C715.521 949.876 686.445 950.64 657.351 949.851C656.692 949.883 656.07 950.168 655.614 950.646C655.159 951.124 654.905 951.76 654.905 952.42C654.905 953.08 655.159 953.715 655.614 954.194C656.07 954.672 656.692 954.956 657.351 954.988C686.426 955.801 715.522 955.141 744.53 953.011C747.805 952.769 747.841 947.656 744.53 947.88ZM786.402 970.533L732.382 972.959C729.106 973.111 729.076 978.242 732.382 978.09C750.386 977.302 768.393 976.493 786.402 975.664C789.684 975.512 789.684 970.4 786.402 970.533ZM1128.61 962.182H1057.12C1056.44 962.182 1055.79 962.452 1055.31 962.933C1054.82 963.414 1054.55 964.067 1054.55 964.747C1054.55 965.427 1054.82 966.08 1055.31 966.561C1055.79 967.042 1056.44 967.313 1057.12 967.313H1128.63C1129.31 967.311 1129.96 967.039 1130.44 966.557C1130.92 966.075 1131.19 965.421 1131.19 964.741C1131.18 964.061 1130.91 963.409 1130.43 962.929C1129.95 962.449 1129.29 962.18 1128.61 962.182ZM230.212 207.829C230.885 207.821 231.529 207.55 232.006 207.075C232.483 206.599 232.756 205.955 232.765 205.282C232.884 201.807 234.277 198.497 236.68 195.983C239.083 193.47 242.326 191.929 245.793 191.654C246.447 191.622 247.065 191.339 247.517 190.864C247.969 190.39 248.222 189.759 248.222 189.103C248.222 188.448 247.969 187.817 247.517 187.342C247.065 186.868 246.447 186.585 245.793 186.553C229.423 187.105 223.789 208.114 230.212 207.829ZM381.157 184.903C384.705 185.447 388.029 186.972 390.755 189.307C393.48 191.641 395.498 194.691 396.581 198.113C396.67 198.438 396.823 198.742 397.03 199.008C397.237 199.274 397.495 199.496 397.788 199.663C398.081 199.829 398.404 199.936 398.739 199.978C399.073 200.019 399.413 199.995 399.737 199.905C400.062 199.816 400.367 199.663 400.633 199.456C400.898 199.249 401.121 198.991 401.287 198.698C401.454 198.405 401.561 198.082 401.602 197.747C401.644 197.413 401.619 197.073 401.53 196.748C400.21 192.475 397.742 188.647 394.396 185.68C391.049 182.713 386.953 180.722 382.552 179.924C382.225 179.832 381.884 179.806 381.546 179.847C381.209 179.887 380.883 179.994 380.588 180.16C380.292 180.326 380.031 180.55 379.822 180.817C379.612 181.084 379.457 181.389 379.365 181.716C379.274 182.043 379.247 182.385 379.288 182.722C379.328 183.059 379.435 183.385 379.601 183.681C379.768 183.977 379.991 184.237 380.258 184.447C380.525 184.657 380.83 184.812 381.157 184.903ZM1000.99 224.229L1005.84 221.196C1004.57 224.729 1004.26 228.536 1004.94 232.228C1005.62 235.92 1007.26 239.367 1009.71 242.217C1012.15 245.067 1015.3 247.22 1018.85 248.456C1022.39 249.692 1026.2 249.967 1029.89 249.253C1034.9 248.293 1039.4 245.568 1042.57 241.572C1045.74 237.577 1047.38 232.575 1047.17 227.478C1046.97 222.38 1044.95 217.524 1041.47 213.791C1037.99 210.059 1033.29 207.698 1028.22 207.138C1030.4 205.257 1028.01 201.339 1025.33 203.007L998.435 219.771C995.615 221.554 998.168 225.988 1000.99 224.229ZM1042.04 228.298C1042.04 231.633 1041.01 234.887 1039.09 237.616C1037.18 240.345 1034.46 242.417 1031.33 243.55C1028.19 244.684 1024.78 244.824 1021.56 243.951C1018.34 243.078 1015.47 241.234 1013.34 238.671C1011.21 236.108 1009.91 232.95 1009.64 229.626C1009.36 226.303 1010.12 222.975 1011.8 220.096C1013.48 217.217 1016.01 214.926 1019.04 213.535C1022.08 212.144 1025.46 211.721 1028.74 212.323C1032.48 213.011 1035.85 214.986 1038.28 217.904C1040.71 220.823 1042.04 224.501 1042.04 228.298ZM271.702 256.113C275.064 255.47 278.223 254.029 280.911 251.909C283.598 249.79 285.737 247.055 287.146 243.935C288.554 240.816 289.192 237.403 289.004 233.985C288.816 230.567 287.809 227.245 286.068 224.298C284.326 221.351 281.901 218.867 278.997 217.055C276.093 215.242 272.796 214.155 269.384 213.885C265.972 213.614 262.545 214.169 259.392 215.502C256.239 216.835 253.453 218.906 251.269 221.542C248.59 224.956 247.004 229.099 246.718 233.429C246.433 237.76 247.461 242.075 249.67 245.811C251.878 249.547 255.162 252.529 259.094 254.367C263.025 256.205 267.42 256.814 271.702 256.113ZM270.58 219.158C274.299 219.879 277.654 221.862 280.078 224.772C282.501 227.682 283.845 231.34 283.881 235.128C283.88 238.463 282.851 241.717 280.935 244.447C279.018 247.176 276.308 249.25 273.171 250.384C270.035 251.519 266.625 251.659 263.406 250.787C260.187 249.914 257.314 248.072 255.18 245.509C253.045 242.946 251.752 239.788 251.477 236.464C251.201 233.14 251.956 229.812 253.639 226.932C255.322 224.053 257.851 221.762 260.882 220.371C263.913 218.98 267.3 218.556 270.58 219.158ZM384.372 256.082C387.734 255.44 390.892 253.998 393.58 251.879C396.268 249.76 398.406 247.025 399.815 243.905C401.224 240.785 401.861 237.373 401.673 233.955C401.486 230.537 400.479 227.215 398.737 224.268C396.995 221.321 394.57 218.837 391.667 217.024C388.763 215.212 385.466 214.125 382.054 213.854C378.641 213.584 375.214 214.139 372.061 215.471C368.908 216.804 366.123 218.876 363.939 221.512C361.263 224.926 359.679 229.069 359.395 233.398C359.112 237.727 360.141 242.041 362.348 245.776C364.556 249.51 367.839 252.492 371.768 254.331C375.697 256.17 380.09 256.78 384.372 256.082ZM383.28 219.158C386.998 219.879 390.354 221.862 392.777 224.772C395.201 227.682 396.545 231.34 396.581 235.128C396.579 238.464 395.549 241.718 393.631 244.448C391.714 247.177 389.002 249.25 385.864 250.383C382.727 251.516 379.316 251.655 376.097 250.781C372.878 249.907 370.006 248.062 367.873 245.497C365.74 242.932 364.449 239.773 364.175 236.448C363.902 233.123 364.66 229.795 366.346 226.916C368.032 224.038 370.564 221.749 373.597 220.36C376.63 218.972 380.018 218.553 383.298 219.158H383.28Z" fill="black"/>
<path d="M261.676 236.864C261.676 238.902 262.485 240.857 263.926 242.298C265.368 243.739 267.322 244.548 269.36 244.548C271.398 244.548 273.353 243.739 274.794 242.298C276.235 240.857 277.044 238.902 277.044 236.864C277.044 234.826 276.235 232.871 274.794 231.43C273.353 229.989 271.398 229.18 269.36 229.18C267.322 229.18 265.368 229.989 263.926 231.43C262.485 232.871 261.676 234.826 261.676 236.864Z" fill="black"/>
<path d="M372.681 236.864C372.681 238.902 373.49 240.857 374.931 242.298C376.372 243.739 378.327 244.548 380.365 244.548C382.403 244.548 384.357 243.739 385.799 242.298C387.24 240.857 388.049 238.902 388.049 236.864C388.049 234.826 387.24 232.871 385.799 231.43C384.357 229.989 382.403 229.18 380.365 229.18C378.327 229.18 376.372 229.989 374.931 231.43C373.49 232.871 372.681 234.826 372.681 236.864Z" fill="black"/>
<path d="M1018.15 230.029C1018.15 231.549 1018.61 233.035 1019.45 234.298C1020.29 235.562 1021.49 236.547 1022.9 237.129C1024.3 237.71 1025.85 237.862 1027.34 237.565C1028.83 237.268 1030.2 236.535 1031.27 235.46C1032.35 234.385 1033.08 233.015 1033.38 231.524C1033.67 230.033 1033.52 228.488 1032.94 227.084C1032.35 225.68 1031.37 224.48 1030.1 223.636C1028.84 222.793 1027.35 222.343 1025.83 222.344C1024.82 222.343 1023.82 222.542 1022.89 222.928C1021.96 223.314 1021.11 223.88 1020.4 224.593C1019.69 225.307 1019.12 226.155 1018.74 227.087C1018.35 228.02 1018.15 229.019 1018.15 230.029ZM1125.49 257.812C1128.85 257.158 1132.01 255.703 1134.69 253.57C1137.36 251.436 1139.49 248.688 1140.88 245.558C1142.27 242.428 1142.88 239.01 1142.66 235.592C1142.45 232.175 1141.41 228.86 1139.64 225.929C1141.33 226.65 1143.75 228.179 1145.1 225.929C1145.27 225.639 1145.38 225.319 1145.43 224.987C1145.47 224.655 1145.45 224.317 1145.37 223.992C1145.28 223.668 1145.13 223.363 1144.93 223.096C1144.73 222.829 1144.47 222.604 1144.19 222.435C1133.89 218.1 1123.96 212.964 1114.47 207.072C1111.64 205.344 1109.09 209.778 1111.88 211.506C1114.25 212.962 1116.62 214.393 1119.02 215.752C1115.49 216.169 1112.12 217.461 1109.21 219.51C1106.3 221.56 1103.95 224.302 1102.37 227.489C1100.79 230.676 1100.03 234.207 1100.16 237.762C1100.29 241.316 1101.3 244.783 1103.11 247.848C1105.39 251.576 1108.76 254.525 1112.75 256.304C1116.75 258.083 1121.19 258.609 1125.49 257.812ZM1124.37 220.858C1128.09 221.579 1131.44 223.563 1133.87 226.473C1136.29 229.383 1137.63 233.041 1137.67 236.827C1137.67 240.163 1136.64 243.417 1134.73 246.146C1132.81 248.876 1130.1 250.949 1126.96 252.084C1123.83 253.218 1120.42 253.359 1117.2 252.487C1113.98 251.614 1111.1 249.771 1108.97 247.209C1106.84 244.646 1105.54 241.488 1105.27 238.164C1104.99 234.84 1105.75 231.512 1107.43 228.632C1109.11 225.753 1111.64 223.462 1114.67 222.071C1117.7 220.68 1121.09 220.256 1124.37 220.858Z" fill="black"/>
<path d="M1113.76 238.561C1113.76 240.599 1114.57 242.554 1116.01 243.995C1117.45 245.436 1119.41 246.246 1121.45 246.246C1123.48 246.246 1125.44 245.436 1126.88 243.995C1128.32 242.554 1129.13 240.599 1129.13 238.561C1129.13 236.523 1128.32 234.569 1126.88 233.128C1125.44 231.687 1123.48 230.877 1121.45 230.877C1119.41 230.877 1117.45 231.687 1116.01 233.128C1114.57 234.569 1113.76 236.523 1113.76 238.561Z" fill="black"/>
<path d="M555.15 266.345C558.512 265.703 561.671 264.262 564.359 262.142C567.046 260.023 569.185 257.288 570.594 254.168C572.002 251.048 572.64 247.636 572.452 244.218C572.264 240.8 571.257 237.478 569.516 234.531C567.774 231.584 565.349 229.1 562.445 227.287C559.541 225.475 556.244 224.388 552.832 224.117C549.42 223.847 545.993 224.402 542.84 225.735C539.687 227.067 536.901 229.139 534.717 231.775C532.041 235.189 530.458 239.332 530.174 243.661C529.89 247.99 530.919 252.304 533.127 256.039C535.334 259.773 538.617 262.755 542.546 264.594C546.476 266.433 550.868 267.043 555.15 266.345ZM537.21 237.039C539.054 233.966 541.864 231.59 545.2 230.283C548.537 228.976 552.213 228.81 555.654 229.813C559.094 230.815 562.106 232.929 564.218 235.824C566.33 238.72 567.424 242.233 567.329 245.815C567.23 243.289 566.198 240.889 564.433 239.079C562.668 237.27 560.295 236.178 557.772 236.016C555.249 235.854 552.755 236.633 550.773 238.203C548.791 239.772 547.461 242.02 547.04 244.513C546.619 247.006 547.137 249.566 548.494 251.7C549.851 253.833 551.95 255.387 554.386 256.063C556.823 256.738 559.423 256.487 561.684 255.357C563.946 254.227 565.708 252.299 566.631 249.946C565.986 252.157 564.876 254.206 563.376 255.955C561.876 257.704 560.021 259.113 557.933 260.088C555.845 261.063 553.573 261.581 551.269 261.608C548.965 261.635 546.682 261.17 544.572 260.244C542.462 259.318 540.574 257.953 539.033 256.24C537.493 254.527 536.336 252.504 535.639 250.308C534.942 248.112 534.722 245.792 534.993 243.504C535.264 241.216 536.02 239.012 537.21 237.039ZM678.1 266.345C681.462 265.702 684.619 264.26 687.306 262.14C689.993 260.02 692.13 257.284 693.538 254.165C694.946 251.045 695.583 247.633 695.394 244.215C695.206 240.798 694.198 237.476 692.457 234.53C690.715 231.584 688.29 229.1 685.386 227.288C682.483 225.476 679.186 224.389 675.774 224.119C672.362 223.849 668.935 224.403 665.783 225.736C662.63 227.068 659.845 229.139 657.661 231.775C654.981 235.189 653.394 239.333 653.109 243.664C652.823 247.995 653.853 252.311 656.062 256.048C658.271 259.784 661.557 262.766 665.489 264.603C669.421 266.441 673.817 267.048 678.1 266.345ZM677.008 229.391C680.725 230.114 684.078 232.098 686.5 235.007C688.923 237.917 690.266 241.574 690.303 245.36C690.297 248.713 689.254 251.982 687.316 254.718C685.378 257.454 682.641 259.523 679.48 260.64C676.319 261.758 672.89 261.87 669.663 260.961C666.436 260.051 663.57 258.165 661.458 255.562C659.875 253.626 658.781 251.338 658.267 248.89C658.935 251.383 660.516 253.533 662.696 254.914C664.876 256.295 667.496 256.806 670.035 256.345C672.574 255.883 674.847 254.484 676.402 252.424C677.957 250.365 678.68 247.796 678.429 245.227C678.177 242.659 676.968 240.279 675.043 238.561C673.118 236.842 670.617 235.911 668.036 235.951C665.456 235.992 662.985 237.001 661.115 238.779C659.244 240.557 658.111 242.973 657.94 245.548C657.905 243.159 658.4 240.792 659.389 238.617C660.378 236.441 661.836 234.512 663.659 232.967C665.482 231.422 667.625 230.301 669.933 229.682C672.241 229.064 674.657 228.965 677.008 229.391ZM479.392 1007.82H432.874C432.193 1007.82 431.541 1008.09 431.06 1008.57C430.579 1009.05 430.308 1009.71 430.308 1010.39C430.308 1011.07 430.579 1011.72 431.06 1012.2C431.541 1012.68 432.193 1012.95 432.874 1012.95H479.392C480.073 1012.95 480.725 1012.68 481.206 1012.2C481.688 1011.72 481.958 1011.07 481.958 1010.39C481.958 1009.71 481.688 1009.05 481.206 1008.57C480.725 1008.09 480.073 1007.82 479.392 1007.82ZM238.024 1007.82H66.1596C65.4792 1007.82 64.8267 1008.09 64.3455 1008.57C63.8644 1009.05 63.5941 1009.71 63.5941 1010.39C63.5941 1011.07 63.8644 1011.72 64.3455 1012.2C64.8267 1012.68 65.4792 1012.95 66.1596 1012.95H238.024C238.704 1012.95 239.356 1012.68 239.838 1012.2C240.319 1011.72 240.589 1011.07 240.589 1010.39C240.589 1009.71 240.319 1009.05 239.838 1008.57C239.356 1008.09 238.704 1007.82 238.024 1007.82ZM260.616 1016.23C260.276 1016.23 259.94 1016.29 259.627 1016.42C259.313 1016.55 259.031 1016.75 258.796 1016.99C257.541 1018.25 256.17 1019.36 256.977 1021.12C257.152 1021.64 257.521 1022.07 258.008 1022.33C258.608 1022.67 259.315 1022.77 259.985 1022.6C260.828 1022.36 261.071 1022 262.411 1020.63C262.767 1020.27 263.009 1019.81 263.107 1019.31C263.206 1018.82 263.157 1018.3 262.965 1017.84C262.774 1017.37 262.449 1016.97 262.031 1016.68C261.614 1016.4 261.121 1016.24 260.616 1016.23ZM283.359 1018.31C282.999 1017.96 282.542 1017.72 282.046 1017.62C281.55 1017.53 281.037 1017.58 280.57 1017.78C280.104 1017.97 279.705 1018.3 279.423 1018.72C279.141 1019.14 278.99 1019.63 278.987 1020.13C278.891 1020.91 278.963 1021.7 279.199 1022.44C279.43 1022.98 279.84 1023.42 280.36 1023.69C280.879 1023.96 281.476 1024.04 282.048 1023.92C282.62 1023.8 283.132 1023.48 283.497 1023.02C283.862 1022.57 284.058 1022 284.051 1021.41C284.057 1020.17 284.136 1018.92 283.359 1018.31ZM231.861 1026.68C231.522 1026.67 231.186 1026.74 230.873 1026.87C230.56 1027 230.277 1027.19 230.042 1027.44C228.768 1028.72 227.422 1029.8 228.223 1031.57C228.401 1032.09 228.769 1032.52 229.254 1032.78C229.851 1033.13 230.561 1033.23 231.231 1033.06C232.074 1032.82 232.28 1032.45 233.657 1031.08C234.011 1030.72 234.252 1030.26 234.349 1029.77C234.447 1029.27 234.397 1028.76 234.206 1028.29C234.016 1027.82 233.692 1027.42 233.275 1027.13C232.858 1026.85 232.367 1026.69 231.861 1026.68ZM808.667 952.133H789.053C788.373 952.133 787.72 952.403 787.239 952.885C786.758 953.366 786.488 954.018 786.488 954.699C786.488 955.379 786.758 956.032 787.239 956.513C787.72 956.994 788.373 957.264 789.053 957.264H808.667C809.348 957.264 810 956.994 810.481 956.513C810.962 956.032 811.233 955.379 811.233 954.699C811.233 954.018 810.962 953.366 810.481 952.885C810 952.403 809.348 952.133 808.667 952.133ZM816.503 977H807.333C806.988 976.983 806.642 977.036 806.318 977.157C805.994 977.277 805.698 977.463 805.448 977.701C805.197 977.939 804.998 978.226 804.862 978.544C804.725 978.862 804.655 979.204 804.655 979.55C804.655 979.896 804.725 980.238 804.862 980.556C804.998 980.874 805.197 981.16 805.448 981.399C805.698 981.637 805.994 981.823 806.318 981.943C806.642 982.064 806.988 982.117 807.333 982.1H816.503C817.158 982.068 817.776 981.786 818.228 981.311C818.68 980.836 818.932 980.206 818.932 979.55C818.932 978.894 818.68 978.264 818.228 977.789C817.776 977.314 817.158 977.032 816.503 977ZM442.438 988.663H456.831C457.176 988.679 457.521 988.626 457.845 988.505C458.169 988.385 458.466 988.2 458.716 987.961C458.966 987.723 459.166 987.436 459.302 987.118C459.438 986.8 459.508 986.458 459.508 986.112C459.508 985.766 459.438 985.424 459.302 985.107C459.166 984.789 458.966 984.502 458.716 984.263C458.466 984.025 458.169 983.84 457.845 983.719C457.521 983.599 457.176 983.545 456.831 983.562H442.438C441.783 983.594 441.166 983.877 440.714 984.351C440.262 984.826 440.009 985.457 440.009 986.112C440.009 986.768 440.262 987.398 440.714 987.873C441.166 988.348 441.783 988.631 442.438 988.663ZM476.445 983.404C476.79 983.421 477.135 983.368 477.459 983.247C477.784 983.127 478.08 982.941 478.33 982.703C478.581 982.464 478.78 982.178 478.916 981.86C479.052 981.542 479.123 981.2 479.123 980.854C479.123 980.508 479.052 980.166 478.916 979.848C478.78 979.53 478.581 979.243 478.33 979.005C478.08 978.766 477.784 978.581 477.459 978.461C477.135 978.34 476.79 978.287 476.445 978.304H467.274C466.62 978.336 466.002 978.618 465.55 979.093C465.098 979.568 464.846 980.198 464.846 980.854C464.846 981.51 465.098 982.14 465.55 982.615C466.002 983.09 466.62 983.372 467.274 983.404H476.445ZM1156.56 984.041C1149.15 984.187 1141.77 984.32 1134.36 984.472C1133.68 984.472 1133.02 984.742 1132.54 985.223C1132.06 985.704 1131.79 986.357 1131.79 987.037C1131.79 987.718 1132.06 988.37 1132.54 988.851C1133.02 989.332 1133.68 989.603 1134.36 989.603C1141.77 989.451 1149.15 989.33 1156.56 989.178C1157.22 989.146 1157.84 988.862 1158.29 988.383C1158.75 987.905 1159 987.27 1159 986.61C1159 985.949 1158.75 985.314 1158.29 984.836C1157.84 984.358 1157.22 984.073 1156.56 984.041ZM1180.12 982.222H1172.28C1171.63 982.254 1171.01 982.536 1170.56 983.011C1170.11 983.486 1169.85 984.116 1169.85 984.772C1169.85 985.428 1170.11 986.058 1170.56 986.533C1171.01 987.008 1171.63 987.29 1172.28 987.322H1180.12C1180.46 987.339 1180.81 987.286 1181.13 987.165C1181.46 987.044 1181.75 986.859 1182 986.621C1182.25 986.382 1182.45 986.096 1182.59 985.778C1182.73 985.46 1182.8 985.118 1182.8 984.772C1182.8 984.426 1182.73 984.084 1182.59 983.766C1182.45 983.448 1182.25 983.161 1182 982.923C1181.75 982.684 1181.46 982.499 1181.13 982.379C1180.81 982.258 1180.46 982.205 1180.12 982.222Z" fill="black"/>
<path d="M1135.97 312.53C1133.28 299.234 1128.57 286.425 1122.02 274.545C1120.47 271.628 1116.07 274.211 1117.59 277.123C1117.89 277.699 1118.16 278.336 1118.47 278.887C1118.25 278.99 1118.04 279.123 1117.86 279.282C1100.56 296.506 1097.33 321.53 1104.23 334.394C1113.82 352.298 1141.33 342.467 1135.97 312.53ZM1127.26 333.691C1116.63 345.402 1101.78 334.267 1106.94 309.704C1109.01 299.881 1113.81 290.842 1120.78 283.624C1124.18 290.83 1126.97 298.303 1129.14 305.968C1131.63 314.774 1134.07 326.182 1127.26 333.691Z" fill="#FFD35C"/>
</svg>
