<svg width="40" height="40" viewBox="0 0 40 40" fill="none" xmlns="http://www.w3.org/2000/svg">
<path d="M24.7072 11.2929L28.7072 15.2929C29.0977 15.6834 29.0977 16.3166 28.7072 16.7071L17.7072 27.7071C17.5676 27.8467 17.3898 27.9419 17.1962 27.9806L12.1962 28.9806C11.4965 29.1205 10.8795 28.5036 11.0195 27.8039L12.0195 22.8039C12.0582 22.6103 12.1534 22.4325 12.293 22.2929L23.293 11.2929C23.6835 10.9024 24.3167 10.9024 24.7072 11.2929ZM21.4995 15.914L13.9213 23.493L13.2748 26.7252L16.5071 26.0788L24.0855 18.5L21.4995 15.914ZM24.0001 13.4142L22.9145 14.5L25.4995 17.085L26.5859 16L24.0001 13.4142Z" fill="#2C2C2C"/>
</svg>
