<svg width="25" height="24" viewBox="0 0 25 24" fill="none" xmlns="http://www.w3.org/2000/svg">
<path fill-rule="evenodd" clip-rule="evenodd" d="M3.5 5C3.5 4.44772 3.94772 4 4.5 4H9.5V6H5.5V19H19.5V6H15.5V4H20.5C21.0523 4 21.5 4.44772 21.5 5V20C21.5 20.5523 21.0523 21 20.5 21H4.5C3.94772 21 3.5 20.5523 3.5 20V5Z" fill="#0C8CE9"/>
<path fill-rule="evenodd" clip-rule="evenodd" d="M11.5 14V2H13.5V14H11.5Z" fill="#0C8CE9"/>
<path fill-rule="evenodd" clip-rule="evenodd" d="M11.7929 15.7071L7.79289 11.7071L9.20711 10.2929L12.5 13.5858L15.7929 10.2929L17.2071 11.7071L13.2071 15.7071C12.8166 16.0976 12.1834 16.0976 11.7929 15.7071Z" fill="#0C8CE9"/>
</svg>
