<svg width="24" height="24" viewBox="0 0 24 24" fill="none" xmlns="http://www.w3.org/2000/svg">
<path d="M21.6287 12.7777C21.8492 12.5994 21.9836 12.3359 21.9986 12.0528C22.0136 11.7696 21.9076 11.4934 21.7071 11.2929L19.7071 9.29294L18.2929 10.7072L19.5069 11.9211L17.285 13.7172L17.9942 16.3551L15.2663 16.4957L14.2896 19.0467L12 17.557L9.7104 19.0467L8.7337 16.4957L6.00576 16.3551L6.71501 13.7172L4.59071 12L6.71501 10.2828L6.00576 7.64493L8.7337 7.50432L9.7104 4.95334L12 6.44303L14.5579 4.77878L15.2121 5.61584L16.7879 4.38428L15.5691 2.82471C15.2496 2.41596 14.6706 2.31937 14.2358 2.60229L12 4.05697L9.76421 2.60229C9.51107 2.43759 9.19705 2.39611 8.90983 2.48943C8.62261 2.58276 8.39294 2.80089 8.28496 3.08293L7.3312 5.57395L4.66737 5.71126C4.36577 5.7268 4.08734 5.87782 3.90983 6.12215C3.73232 6.36647 3.67473 6.67794 3.75314 6.96958L4.44573 9.54547L2.37135 11.2223C2.13648 11.4122 2 11.698 2 12C2 12.302 2.13648 12.5878 2.37135 12.7777L4.44573 14.4545L3.75314 17.0304C3.67473 17.3221 3.73232 17.6335 3.90983 17.8779C4.08734 18.1222 4.36577 18.2732 4.66737 18.2887L7.3312 18.426L8.28496 20.9171C8.39294 21.1991 8.62261 21.4172 8.90983 21.5106C9.19705 21.6039 9.51107 21.5624 9.76421 21.3977L12 19.943L14.2358 21.3977C14.4889 21.5624 14.8029 21.6039 15.0902 21.5106C15.3774 21.4172 15.6071 21.1991 15.715 20.9171L16.6688 18.426L19.3326 18.2887C19.6342 18.2732 19.9127 18.1222 20.0902 17.8779C20.2677 17.6335 20.3253 17.3221 20.2469 17.0304L19.5543 14.4545L21.6287 12.7777Z" fill="#2C2C2C"/>
<path d="M11.7072 14.7072L20.2072 6.20718L18.793 4.79297L11.0001 12.5859L8.70718 10.293L7.29297 11.7072L10.293 14.7072C10.6835 15.0977 11.3167 15.0977 11.7072 14.7072Z" fill="#2C2C2C"/>
</svg>
