<svg width="24" height="24" viewBox="0 0 24 24" fill="none" xmlns="http://www.w3.org/2000/svg">
<path fill-rule="evenodd" clip-rule="evenodd" d="M18.0737 2.00009C18.4326 2.00478 18.7614 2.20141 18.9354 2.51534L20.8747 6.01534C20.9569 6.16366 21 6.33044 21 6.5V12V19C21 20.6569 19.6568 22 18 22C16.3431 22 15 20.6569 15 19L15 6.5C15 6.32158 15.0477 6.1464 15.1383 5.99265L17.1989 2.49264C17.381 2.18337 17.7149 1.9954 18.0737 2.00009ZM17 18V19C17 19.5523 17.4477 20 18 20C18.5523 20 19 19.5523 19 19V18H17ZM17 16H19V12V6.75853L18.0343 5.01574L17 6.77252V16ZM3 3.99999C3 3.44771 3.44772 2.99999 4 2.99999H14V4.99999L13 4.99999V6.99999H11V4.99999H9V6.99999H7V4.99999L5 4.99999V19H13V21H4C3.44772 21 3 20.5523 3 20V3.99999ZM7 11H13V13H7V11ZM13 15H7V17H13V15Z" fill="#2C2C2C"/>
</svg>
